<?xml version="1.0" encoding="UTF-8" standalone="no" ?>
<!DOCTYPE svg PUBLIC "-//W3C//DTD SVG 1.1//EN" "http://www.w3.org/Graphics/SVG/1.1/DTD/svg11.dtd">
<svg xmlns="http://www.w3.org/2000/svg" xmlns:xlink="http://www.w3.org/1999/xlink" version="1.1" width="610" height="150" viewBox="0 0 610 150" xml:space="preserve">
<desc>Created with Fabric.js 3.6.6</desc>
<defs>
</defs>
<g transform="matrix(4.47 0 0 4.47 307.43 73.97)"  >
<g style=""   >
		<g transform="matrix(1 0 0 1 -54.02 -0.1)" id="openai-horizontal"  >
<path style="stroke: none; stroke-width: 1; stroke-dasharray: none; stroke-linecap: butt; stroke-dashoffset: 0; stroke-linejoin: miter; stroke-miterlimit: 4; fill: rgb(0,0,0); fill-rule: nonzero; opacity: 1;"  transform=" translate(-14.56, -14.76)" d="M 27.21 12.08 c 0.67 -2.01 0.44 -4.21 -0.63 -6.04 c -1.61 -2.8 -4.85 -4.24 -8.01 -3.57 C 17.16 0.89 15.14 -0.01 13.02 0 c -3.23 0 -6.1 2.08 -7.1 5.15 c -2.08 0.43 -3.87 1.73 -4.92 3.57 c -1.62 2.8 -1.25 6.32 0.92 8.72 c -0.67 2.01 -0.44 4.21 0.63 6.03 c 1.61 2.81 4.85 4.25 8.02 3.58 c 1.4 1.58 3.42 2.49 5.54 2.48 c 3.23 0 6.1 -2.08 7.1 -5.15 c 2.08 -0.43 3.87 -1.73 4.91 -3.57 c 1.63 -2.8 1.26 -6.32 -0.91 -8.72 Z m -2.3 -5.07 c 0.64 1.12 0.88 2.43 0.66 3.7 c -0.04 -0.03 -0.12 -0.07 -0.17 -0.1 l -5.88 -3.4 c -0.3 -0.17 -0.67 -0.17 -0.97 0 l -6.89 3.98 v -2.92 l 5.69 -3.29 c 2.65 -1.53 6.03 -0.62 7.56 2.03 Z m -13.25 6.07 l 2.9 -1.68 l 2.9 1.68 v 3.35 l -2.9 1.68 l -2.9 -1.68 v -3.35 Z M 13.01 1.93 c 1.3 0 2.55 0.45 3.55 1.28 c -0.04 0.02 -0.12 0.07 -0.18 0.1 l -5.88 3.39 c -0.3 0.17 -0.48 0.49 -0.48 0.84 v 7.96 l -2.53 -1.46 V 7.46 c 0 -3.06 2.47 -5.53 5.53 -5.54 Z M 2.68 9.69 h 0 c 0.65 -1.12 1.66 -1.98 2.88 -2.43 v 6.99 c 0 0.35 0.18 0.66 0.48 0.84 l 6.88 3.97 l -2.54 1.47 l -5.68 -3.28 c -2.64 -1.53 -3.55 -4.91 -2.02 -7.56 Z m 1.55 12.83 h 0 c -0.65 -1.11 -0.88 -2.43 -0.66 -3.7 c 0.04 0.03 0.12 0.07 0.17 0.1 l 5.88 3.4 c 0.3 0.17 0.67 0.17 0.97 0 l 6.88 -3.98 v 2.92 l -5.69 3.28 c -2.65 1.52 -6.03 0.62 -7.56 -2.02 Z m 11.89 5.08 c -1.29 0 -2.55 -0.45 -3.54 -1.28 c 0.04 -0.02 0.13 -0.07 0.18 -0.1 l 5.88 -3.39 c 0.3 -0.17 0.49 -0.49 0.48 -0.84 v -7.95 l 2.53 1.46 v 6.57 c 0 3.06 -2.48 5.54 -5.53 5.54 Z m 10.34 -7.76 c -0.65 1.12 -1.67 1.98 -2.88 2.42 v -6.99 c 0 -0.35 -0.18 -0.67 -0.48 -0.84 h 0 l -6.89 -3.98 l 2.53 -1.46 l 5.69 3.28 c 2.65 1.53 3.55 4.91 2.02 7.56 Z" stroke-linecap="round" />
</g>
		<g transform="matrix(1 0 0 1 15.58 1.31)" style=""  >
		<text xml:space="preserve" font-family="'Open Sans', sans-serif" font-size="24" font-style="normal" font-weight="bold" style="stroke: none; stroke-width: 1; stroke-dasharray: none; stroke-linecap: butt; stroke-dashoffset: 0; stroke-linejoin: miter; stroke-miterlimit: 4; fill: rgb(0,0,0); fill-rule: nonzero; opacity: 1; white-space: pre;" ><tspan x="-53" y="7.54" style="stroke-width: 1; font-family: 'Open Sans', sans-serif; font-style: normal; fill: rgb(0,0,0); ">DreamAI</tspan></text>
</g>
</g>
</g>
</svg>